<?xml version="1.0" encoding="UTF-8" standalone="no" ?>
<!DOCTYPE svg PUBLIC "-//W3C//DTD SVG 1.1//EN" "http://www.w3.org/Graphics/SVG/1.1/DTD/svg11.dtd">
<svg xmlns="http://www.w3.org/2000/svg" xmlns:xlink="http://www.w3.org/1999/xlink" version="1.1" width="1080" height="1080" viewBox="0 0 1080 1080" xml:space="preserve">
<desc>Created with Fabric.js 5.2.4</desc>
<defs>
</defs>
<rect x="0" y="0" width="100%" height="100%" fill="transparent"></rect>
<g transform="matrix(1 0 0 1 540 540)" id="b780b9b6-3efb-4fc1-b953-1f5992dc0914"  >
</g>
<g transform="matrix(1 0 0 1 540 540)" id="82411b23-b19a-41e9-a453-827be45e6fc3"  >
<rect style="stroke: none; stroke-width: 1; stroke-dasharray: none; stroke-linecap: butt; stroke-dashoffset: 0; stroke-linejoin: miter; stroke-miterlimit: 4; fill: rgb(255,255,255); fill-rule: nonzero; opacity: 1; visibility: hidden;" vector-effect="non-scaling-stroke"  x="-540" y="-540" rx="0" ry="0" width="1080" height="1080" />
</g>
<g transform="matrix(44 0 0 44.06 539.35 539.17)"  >
<path style="stroke: rgb(255,255,255); stroke-width: 0; stroke-dasharray: none; stroke-linecap: butt; stroke-dashoffset: 0; stroke-linejoin: miter; stroke-miterlimit: 4; fill: rgb(255,255,255); fill-rule: nonzero; opacity: 1;" vector-effect="non-scaling-stroke"  transform=" translate(-12, -12)" d="M 14.08008 0 C 13.07774 0 12.26758 0.80893 12.26758 1.8086 L 12.26758 4.38086 C 8.24887 5.12526 5.07253 8.292760000000001 4.32812 12.30078 L 1.8125 12.30078 C 0.8115000000000001 12.30078 0 13.107759999999999 0 14.10742 C 0 15.105749999999999 0.8115 15.91602 1.8125 15.91602 L 4.32813 15.91602 C 5.18077 20.5094 9.22875 24 14.08008 24 C 19.54884 24 24 19.56148 24 14.10742 C 24 9.2708 20.49933 5.23218 15.89258 4.38086 L 15.89258 1.80859 C 15.89258 0.80893 15.08108 0 14.08008 0 Z M 4.69336 3.17578 C 3.68968 3.17578 2.8769600000000004 3.9853300000000003 2.8769600000000004 4.986330000000001 C 2.8769600000000004 5.985990000000001 3.6896800000000005 6.798830000000001 4.69336 6.798830000000001 C 5.69436 6.798830000000001 6.50976 5.985990000000001 6.50976 4.986330000000001 C 6.50976 3.9853300000000007 5.69436 3.1757800000000005 4.69336 3.1757800000000005 z M 14.08008 7.83203 C 17.54817 7.83203 20.37305 10.64601 20.37305 14.10743 C 20.37305 17.56749 17.54817 20.38477 14.080079999999999 20.38477 C 10.61065 20.38477 7.787109999999998 17.56749 7.787109999999998 14.10742 C 7.787109999999998 10.64602 10.610649999999998 7.83203 14.080079999999999 7.83203 z M 14.0625 10.236329999999999 C 11.91616 10.236329999999999 10.16992 11.976189999999999 10.16992 14.117189999999999 C 10.16992 16.25819 11.91616 18 14.0625 18 C 16.20884 18 17.95508 16.25818 17.95508 14.11719 C 17.95508 11.97619 16.20884 10.23633 14.062499999999998 10.23633 z M 14.0625 12.953129999999998 C 14.708 12.953129999999998 15.23047 13.473019999999998 15.23047 14.117189999999997 C 15.23047 14.760019999999997 14.70801 15.285159999999998 14.0625 15.285159999999998 C 13.41833 15.285159999999998 12.89258 14.760019999999997 12.89258 14.117189999999997 C 12.89258 13.473019999999996 13.418330000000001 12.953119999999997 14.0625 12.953119999999997 z" stroke-linecap="round" />
</g>
</svg>